nColumns=19
nRows=39
DataType=double
version=3
OpenSimVersion=4.1
endheader
time	ground_force_1_vx	ground_force_1_vy	ground_force_1_vz	ground_force_1_px	ground_force_1_py	ground_force_1_pz	ground_force_1_mx	ground_force_1_my	ground_force_1_mz	ground_force_2_vx	ground_force_2_vy	ground_force_2_vz	ground_force_2_px	ground_force_2_py	ground_force_2_pz	ground_force_2_mx	ground_force_2_my	ground_force_2_mz
4.05	0	0	0	0.000992215	0	-0.000316096	0	0	0	-125.288	1630.45	71.8934	0.79786	0	-0.440108	0	-4.49642	0
4.05833	0	0	0	0.000992219	0	-0.000316093	0	0	0	-55.8234	1620.95	57.0653	0.761096	0	-0.443346	0	-3.79912	0
4.06667	0	0	0	0.000992223	0	-0.00031609	0	0	0	7.55815	1580.62	43.5884	0.726321	0	-0.444122	0	-2.73938	0
4.075	0	0	0	0.000992227	0	-0.000316087	0	0	0	62.9116	1508.38	36.0878	0.69365	0	-0.44227	0	-1.49665	0
4.08333	0	0	0	0.000992231	0	-0.000316084	0	0	0	116.633	1397.16	27.5706	0.659888	0	-0.440483	0	-0.227963	0
4.09167	0	0	0	0.000992234	0	-0.000316082	0	0	0	167.207	1245.31	13.3469	0.62287	0	-0.440518	-0	0.944353	-0
4.1	0	0	0	0.000992237	0	-0.00031608	0	0	0	202.361	1061.28	-2.3513	0.585825	0	-0.44106	-0	1.91485	-0
4.10833	0	0	0	0.00099224	0	-0.000316078	0	0	0	212.704	858.329	-13.663	0.554116	0	-0.439801	-0	2.59991	-0
4.11667	0	0	0	0.000992242	0	-0.000316076	0	0	0	204.07	651.25	-20.4992	0.528385	0	-0.436283	-0	2.95422	-0
4.125	0	0	0	0.000992244	0	-0.000316075	0	0	0	183.686	455.247	-25.9802	0.504947	0	-0.432299	-0	2.96582	-0
4.13333	0	0	0	0.000992246	0	-0.000316073	0	0	0	149.139	285.45	-30.1429	0.4794	0	-0.430668	-0	2.63723	-0
4.14167	0	0	0	0.000992247	0	-0.000316072	0	0	0	101.48	156.84	-29.8	0.44667	0	-0.43196	-0	1.98598	-0
4.15	0	0	0	0.000992248	0	-0.000316071	0	0	0	55.3431	76.1604	-23.6583	0.400512	0	-0.425115	-0	1.06945	-0
4.15833	0	0	0	0.000992249	0	-0.000316071	0	0	0	26.3894	36.7174	-14.7401	0.365464	0	-0.37021	-0	0.002062	-0
4.16667	0	0	0	0.000992249	0	-0.000316071	0	0	0	12.8263	20.5764	-7.26908	0.414298	0	-0.259294	0	-1.06097	0
4.175	0	0	0	0.00099225	0	-0.00031607	0	0	0	5.03949	11.9588	-2.97274	0.538432	0	-0.146312	0	-1.96292	0
4.18333	0	0	0	0.00099225	0	-0.00031607	0	0	0	0	0	0	0.000992656	0	-0.000315923	0	0	0
4.19167	0	0	0	0.000992251	0	-0.00031607	0	0	0	0	0	0	0.000992657	0	-0.000315923	0	0	0
4.2	0	0	0	0.000992253	0	-0.000316069	0	0	0	0	0	0	0.000992659	0	-0.000315922	0	0	0
4.20833	0	0	0	0.000992256	0	-0.000316067	0	0	0	0	0	0	0.000992662	0	-0.00031592	0	0	0
4.21667	0	0	0	0.00099226	0	-0.000316065	0	0	0	0	0	0	0.000992665	0	-0.000315919	0	0	0
4.225	0	0	0	0.000992264	0	-0.000316063	0	0	0	0	0	0	0.00099267	0	-0.000315916	0	0	0
4.23333	-1.76388	11.5969	0.022728	0.50592	0	-0.123585	-0	0.617298	-0	0	0	0	0.000992675	0	-0.000315914	0	0	0
4.24167	-7.22893	25.2503	-2.66464	0.770381	0	-0.239308	-0	1.24068	-0	0	0	0	0.00099268	0	-0.000315911	0	0	0
4.25	-26.4371	63.31	-7.10307	0.889104	0	-0.319836	-0	1.32163	-0	0	0	0	0.000992687	0	-0.000315907	0	0	0
4.25833	-62.6301	159.63	-11.457	0.936462	0	-0.355379	-0	0.727116	-0	0	0	0	0.000992694	0	-0.000315904	0	0	0
4.26667	-106.295	358.568	-11.3964	0.958442	0	-0.364239	0	-0.497535	0	0	0	0	0.000992702	0	-0.000315899	0	0	0
4.275	-139.583	659.999	-2.93204	0.965047	0	-0.363415	0	-2.08496	0	0	0	0	0.000992711	0	-0.000315895	0	0	0
4.28333	-155.801	967.602	11.79	0.960359	0	-0.360131	0	-3.58777	0	0	0	0	0.00099272	0	-0.00031589	0	0	0
4.29167	-172.041	1171.23	22.0694	0.948807	0	-0.3572	0	-4.52874	0	0	0	0	0.000992731	0	-0.000315884	0	0	0
4.3	-202.386	1274.8	17.3989	0.932234	0	-0.356003	0	-4.60664	0	0	0	0	0.000992742	0	-0.000315879	0	0	0
4.30833	-230.511	1354.48	0.299993	0.909963	0	-0.356201	0	-3.8342	0	0	0	0	0.000992753	0	-0.000315873	0	0	0
4.31667	-231.22	1454.99	-15.0379	0.881987	0	-0.355305	0	-2.50802	0	0	0	0	0.000992766	0	-0.000315866	0	0	0
4.325	-200.877	1566.38	-18.7223	0.850849	0	-0.352297	0	-1.03949	0	0	0	0	0.000992779	0	-0.000315859	0	0	0
4.33333	-149.653	1654.69	-14.5926	0.81929	0	-0.349083	-0	0.217125	-0	0	0	0	0.000992793	0	-0.000315852	0	0	0
4.34167	-84.8182	1695.13	-11.6554	0.787426	0	-0.347396	-0	1.03536	-0	0	0	0	0.000992808	0	-0.000315844	0	0	0
4.35	-12.7002	1684.28	-11.5519	0.754205	0	-0.346841	-0	1.30327	-0	0	0	0	0.000992823	0	-0.000315836	0	0	0
4.35833	59.2343	1631.72	-8.92627	0.719337	0	-0.346116	-0	1.00527	-0	0	0	0	0.00099284	0	-0.000315827	0	0	0
4.36667	125.682	1544.41	-0.640944	0.683547	0	-0.344977	-0	0.23057	-0	0	0	0	0.000992857	0	-0.000315818	0	0	0
